<?xml version="1.0" encoding="utf-8"?>
<!-- Generator: Adobe Illustrator 23.0.1, SVG Export Plug-In . SVG Version: 6.00 Build 0)  -->
<svg version="1.1" xmlns="http://www.w3.org/2000/svg" xmlns:xlink="http://www.w3.org/1999/xlink" x="0px" y="0px"
	 viewBox="0 0 500 500" style="enable-background:new 0 0 500 500;" xml:space="preserve">
<style type="text/css">
	.st0{fill:url(#SVGID_1_);}
	.st1{fill:url(#SVGID_2_);}
	.st2{fill:url(#SVGID_3_);}
	.st3{fill:url(#SVGID_4_);}
</style>
<g id="BACKGROUND">
</g>
<g id="OBJECTS">
	<linearGradient id="SVGID_1_" gradientUnits="userSpaceOnUse" x1="171.2247" y1="222.7653" x2="308.9691" y2="222.7653">
		<stop  offset="0" style="stop-color:#43C5ED"/>
		<stop  offset="0.4183" style="stop-color:#43D4DA"/>
		<stop  offset="1" style="stop-color:#43EDB8"/>
	</linearGradient>
	<path class="st0" d="M171.22,164.51l4.53,118.93c0.16,4.19,3.77,7.41,7.95,7.09l118.43-8.96c3.96-0.3,6.98-3.68,6.83-7.65
		L304.7,162.1c-0.16-4.19-3.77-7.41-7.95-7.09L171.22,164.51"/>
	<linearGradient id="SVGID_2_" gradientUnits="userSpaceOnUse" x1="171.2247" y1="232.961" x2="289.1629" y2="232.961">
		<stop  offset="0" style="stop-color:#158CFF"/>
		<stop  offset="0.3225" style="stop-color:#219BFA"/>
		<stop  offset="0.9361" style="stop-color:#3FC1EE"/>
		<stop  offset="1" style="stop-color:#43C5ED"/>
	</linearGradient>
	<polyline class="st1" points="171.22,164.51 176.05,291.1 289.16,301.41 284.34,174.82 171.22,164.51 	"/>
	<linearGradient id="SVGID_3_" gradientUnits="userSpaceOnUse" x1="171.2247" y1="245.1075" x2="269.489" y2="245.1075">
		<stop  offset="0" style="stop-color:#0040F2"/>
		<stop  offset="0.2627" style="stop-color:#0657F6"/>
		<stop  offset="0.7459" style="stop-color:#117DFD"/>
		<stop  offset="1" style="stop-color:#158CFF"/>
	</linearGradient>
	<polyline class="st2" points="171.22,164.51 176.05,291.1 269.49,325.71 264.66,199.11 171.22,164.51 	"/>
	<linearGradient id="SVGID_4_" gradientUnits="userSpaceOnUse" x1="210.2845" y1="345.0163" x2="210.2845" y2="164.507">
		<stop  offset="0" style="stop-color:#0040F2"/>
		<stop  offset="0.181" style="stop-color:#323DF2"/>
		<stop  offset="0.3666" style="stop-color:#5D3BF2"/>
		<stop  offset="0.5464" style="stop-color:#8039F2"/>
		<stop  offset="0.7161" style="stop-color:#9838F2"/>
		<stop  offset="0.8717" style="stop-color:#A737F2"/>
		<stop  offset="1" style="stop-color:#AC37F2"/>
	</linearGradient>
	<path class="st3" d="M171.22,164.51l4.76,124.73c0.05,1.19,0.59,2.31,1.5,3.08l59.97,50.97c4.79,4.07,12.13,0.5,11.89-5.78
		l-4.08-107.01c-0.08-2.02-1-3.92-2.54-5.23L171.22,164.51"/>
</g>
</svg>
